<svg width="94" height="59" viewBox="0 0 94 59" fill="none" xmlns="http://www.w3.org/2000/svg">
<path d="M36 58.0945L30.6818 58.0945L19.1761 45.6683C18.1534 44.6115 17.233 43.7251 16.4148 43.0092C15.5966 42.282 14.7955 41.7308 14.0114 41.3558C13.2159 40.9808 12.358 40.7933 11.4375 40.7933C10.4148 40.7933 9.53409 41.0263 8.79545 41.4922C8.04545 41.9581 7.47159 42.5945 7.07386 43.4013C6.66477 44.2081 6.46023 45.1229 6.46023 46.1456C6.46023 47.2138 6.67613 48.1456 7.10795 48.9411C7.53977 49.7365 8.15909 50.3501 8.96591 50.782C9.77272 51.2138 10.733 51.4297 11.8466 51.4297L11.8466 58.4354C9.5625 58.4354 7.57954 57.9183 5.89773 56.8842C4.21591 55.8501 2.91477 54.4013 1.99432 52.5376C1.07386 50.674 0.613634 48.5263 0.613633 46.0945C0.613633 43.5945 1.05681 41.4183 1.94318 39.5661C2.81818 37.7024 4.03409 36.2536 5.59091 35.2195C7.14772 34.1854 8.93181 33.6683 10.9432 33.6683C12.2614 33.6683 13.5625 33.9297 14.8466 34.4524C16.1307 34.9638 17.5568 35.8786 19.125 37.1967C20.6818 38.5149 22.5511 40.3729 24.733 42.7706L29.7273 47.8672L29.9659 47.8672L29.9659 33.2081L36 33.2081L36 58.0945ZM36.767 14.1726C36.7557 17.1044 36.0341 19.6271 34.6023 21.7408C33.1705 23.843 31.0966 25.4624 28.3807 26.5987C25.6648 27.7237 22.3977 28.2805 18.5795 28.2692C14.7727 28.2692 11.5284 27.7067 8.84659 26.5817C6.16477 25.4453 4.12499 23.826 2.72727 21.7237C1.31818 19.6101 0.61363 17.093 0.61363 14.1726C0.61363 11.2521 1.31818 8.74077 2.72727 6.6385C4.13636 4.52486 6.18181 2.89986 8.86363 1.7635C11.5341 0.627134 14.7727 0.0646339 18.5795 0.0759978C22.4091 0.0759977 25.6818 0.64418 28.3977 1.78054C31.1136 2.90554 33.1875 4.51918 34.6193 6.62145C36.0511 8.72373 36.767 11.2408 36.767 14.1726ZM30.6477 14.1726C30.6477 12.1726 29.642 10.576 27.6307 9.38282C25.6193 8.18963 22.6023 7.59873 18.5795 7.61009C15.9318 7.61009 13.7273 7.88282 11.9659 8.42827C10.2045 8.96236 8.88067 9.72373 7.99431 10.7124C7.10795 11.6896 6.66477 12.843 6.66477 14.1726C6.66477 16.1612 7.65909 17.7521 9.64772 18.9453C11.6364 20.1385 14.6136 20.7408 18.5795 20.7521C21.2614 20.7521 23.5 20.4851 25.2954 19.951C27.0795 19.4055 28.4204 18.6385 29.3182 17.6499C30.2045 16.6612 30.6477 15.5021 30.6477 14.1726ZM94 58.0945L88.6818 58.0945L77.1761 45.6683C76.1534 44.6115 75.233 43.7251 74.4148 43.0092C73.5966 42.282 72.7955 41.7308 72.0114 41.3558C71.2159 40.9808 70.358 40.7933 69.4375 40.7933C68.4148 40.7933 67.5341 41.0263 66.7955 41.4922C66.0455 41.9581 65.4716 42.5945 65.0739 43.4013C64.6648 44.2081 64.4602 45.1229 64.4602 46.1456C64.4602 47.2138 64.6761 48.1456 65.108 48.9411C65.5398 49.7365 66.1591 50.3501 66.9659 50.782C67.7727 51.2138 68.733 51.4297 69.8466 51.4297L69.8466 58.4354C67.5625 58.4354 65.5795 57.9183 63.8977 56.8842C62.2159 55.8501 60.9148 54.4013 59.9943 52.5376C59.0739 50.674 58.6136 48.5263 58.6136 46.0945C58.6136 43.5945 59.0568 41.4183 59.9432 39.5661C60.8182 37.7024 62.0341 36.2536 63.5909 35.2195C65.1477 34.1854 66.9318 33.6683 68.9432 33.6683C70.2614 33.6683 71.5625 33.9297 72.8466 34.4524C74.1307 34.9638 75.5568 35.8786 77.125 37.1967C78.6818 38.5149 80.5511 40.3729 82.733 42.7706L87.7273 47.8672L87.9659 47.8672L87.9659 33.2081L94 33.2081L94 58.0945ZM87.8636 29.1385L82.0511 29.1385L59.0909 14.5646L59.0909 9.55327L67.1364 9.55327L67.1364 12.5192L81.6761 21.7067L81.9489 21.7067L81.9489 0.996451L87.8636 0.996451L87.8636 29.1385ZM94 12.3828L86.0909 12.3828L83.517 12.2465L59.0909 12.2465L59.0909 5.326L94 5.326L94 12.3828Z" fill="white"/>
</svg>
