<svg width="36" height="36" viewBox="0 0 36 36" fill="none" xmlns="http://www.w3.org/2000/svg">
<path d="M32.7718 17.721H32.5181C31.4765 13.0652 27.3189 9.56883 22.3551 9.56883H19.1848V8.40941C20.7609 7.84781 21.9022 6.35325 21.9022 4.58694C21.9022 2.34057 20.0725 0.510855 17.8261 0.510855C15.5797 0.510855 13.75 2.34057 13.75 4.58694C13.75 6.35325 14.8913 7.84781 16.4674 8.40941V9.56883H13.2971C8.33335 9.56883 4.17574 13.0652 3.13408 17.721H2.88045C1.38589 17.721 0.163063 18.9438 0.163063 20.4384V23.1558C0.163063 24.6503 1.38589 25.8732 2.88045 25.8732H3.37864C4.44748 29.2065 7.14676 31.7971 10.5344 32.7391C10.2808 33.2735 10.1268 33.8532 10.1268 34.4782C10.1268 35.2301 10.7337 35.8369 11.4855 35.8369H24.1667C24.9185 35.8369 25.5254 35.2301 25.5254 34.4782C25.5254 33.8532 25.3714 33.2645 25.1178 32.7391C28.5055 31.8061 31.2047 29.2065 32.2736 25.8732H32.7718C34.2663 25.8732 35.4891 24.6503 35.4891 23.1558V20.4384C35.4891 18.9438 34.2663 17.721 32.7718 17.721ZM17.8261 3.22825C18.5779 3.22825 19.1848 3.83513 19.1848 4.58694C19.1848 5.33875 18.5779 5.94564 17.8261 5.94564C17.0743 5.94564 16.4674 5.33875 16.4674 4.58694C16.4674 3.83513 17.0743 3.22825 17.8261 3.22825ZM22.3551 30.4022H13.2971C9.04893 30.4022 5.59785 26.9511 5.59785 22.7029V19.9855C5.59785 15.7373 9.04893 12.2862 13.2971 12.2862H22.3551C26.6033 12.2862 30.0544 15.7373 30.0544 19.9855V22.7029C30.0544 26.9511 26.6033 30.4022 22.3551 30.4022Z" fill="black"/>
<path d="M12.8442 15.9094C11.3497 15.9094 10.1268 17.1322 10.1268 18.6268V21.3442C10.1268 22.8388 11.3497 24.0616 12.8442 24.0616C14.3388 24.0616 15.5616 22.8388 15.5616 21.3442V18.6268C15.5616 17.1322 14.3388 15.9094 12.8442 15.9094Z" fill="black"/>
<path d="M22.808 15.9094C21.3134 15.9094 20.0906 17.1322 20.0906 18.6268V21.3442C20.0906 22.8388 21.3134 24.0616 22.808 24.0616C24.3026 24.0616 25.5254 22.8388 25.5254 21.3442V18.6268C25.5254 17.1322 24.3026 15.9094 22.808 15.9094Z" fill="black"/>
<path d="M8.34241 3.15578L11.0598 4.06158C11.2047 4.10687 11.3497 4.13404 11.4855 4.13404C12.0562 4.13404 12.5815 3.77172 12.7718 3.20107C13.0073 2.48549 12.6268 1.71557 11.9112 1.48006L9.19386 0.574261C8.48734 0.338754 7.71741 0.719189 7.47284 1.43477C7.22828 2.15035 7.61777 2.92028 8.33335 3.15578H8.34241Z" fill="black"/>
<path d="M8.76813 8.66303C8.91306 8.66303 9.05799 8.64491 9.19386 8.59056L11.9112 7.68477C12.6268 7.44926 13.0073 6.67933 12.7718 5.96375C12.5363 5.24817 11.7663 4.86774 11.0507 5.10325L8.33335 6.00904C7.61777 6.24455 7.23734 7.01448 7.47284 7.73006C7.66306 8.30071 8.18842 8.66303 8.75908 8.66303H8.76813Z" fill="black"/>
<path d="M24.1667 4.13404C24.3116 4.13404 24.4565 4.11593 24.5924 4.06158L27.3098 3.15578C28.0254 2.92028 28.4058 2.15035 28.1703 1.43477C27.9348 0.719189 27.1649 0.338754 26.4493 0.574261L23.7319 1.48006C23.0163 1.71557 22.6359 2.48549 22.8714 3.20107C23.0616 3.77172 23.587 4.13404 24.1576 4.13404H24.1667Z" fill="black"/>
<path d="M23.741 7.68477L26.4583 8.59056C26.6033 8.63585 26.7482 8.66303 26.8841 8.66303C27.4547 8.66303 27.9801 8.30071 28.1703 7.73006C28.4058 7.01448 28.0254 6.24455 27.3098 6.00904L24.5924 5.10325C23.8859 4.86774 23.1069 5.24817 22.8714 5.96375C22.6359 6.67933 23.0163 7.44926 23.7319 7.68477H23.741Z" fill="black"/>
</svg>
